<svg id="Layer_1" data-name="Layer 1" xmlns="http://www.w3.org/2000/svg" xmlns:xlink="http://www.w3.org/1999/xlink" viewBox="0 0 763.13 331.68"><defs><style>.cls-1{fill:url(#linear-gradient);}.cls-2{fill:url(#linear-gradient-2);}.cls-10,.cls-15,.cls-3{fill:none;}.cls-4{mask:url(#mask);}.cls-5{fill:url(#linear-gradient-3);}.cls-6{fill:url(#linear-gradient-4);}.cls-7{fill:#f2f2f2;}.cls-8{fill:#2f2e41;}.cls-14,.cls-9{fill:#1078ad;}.cls-10{stroke:#3f3d56;}.cls-10,.cls-15{stroke-miterlimit:10;}.cls-11{fill:#3f3d56;}.cls-12{fill:#57b894;}.cls-13{fill:#fff;}.cls-14,.cls-20{opacity:0.1;}.cls-15{stroke:#535461;stroke-width:2px;}.cls-16{opacity:0.25;}.cls-17{fill:url(#Unnamed_Pattern_2);}.cls-18{fill:#e8f5ff;}.cls-19{fill:#ffc1c7;}.cls-21{fill:#575a89;}.cls-22{fill:#dce6f2;}.cls-23{fill:#99607e;}.cls-24{fill:#353146;}.cls-25{fill:#ffccd0;}</style><linearGradient id="linear-gradient" x1="554.49" y1="-14950.52" x2="554.49" y2="-14958.31" gradientTransform="matrix(1, 0, 0, -1, 128.51, -13873.95)" gradientUnits="userSpaceOnUse"><stop offset="0" stop-color="#404040"/><stop offset="0.54" stop-color="#1f1f1f"/><stop offset="1" stop-color="#1a1a1a"/></linearGradient><linearGradient id="linear-gradient-2" x1="254.91" y1="-14703.65" x2="254.91" y2="-15035.33" gradientTransform="matrix(1, 0, 0, -1, 428.09, -13918.33)" xlink:href="#linear-gradient"/><mask id="mask" x="0" y="-1289" width="1366" height="1289" maskUnits="userSpaceOnUse"><rect class="cls-1" width="1366" height="1289"/></mask><linearGradient id="linear-gradient-3" x1="554.49" y1="-14950.52" x2="554.49" y2="-14958.31" gradientTransform="matrix(1, 0, 0, -1, 128.51, -13873.95)" gradientUnits="userSpaceOnUse"><stop offset="0" stop-color="gray"/><stop offset="0.54" stop-color="gray"/><stop offset="1" stop-color="gray"/></linearGradient><linearGradient id="linear-gradient-4" x1="254.91" y1="-14703.65" x2="254.91" y2="-15035.33" gradientTransform="matrix(1, 0, 0, -1, 428.09, -13918.33)" xlink:href="#linear-gradient-3"/><pattern id="Unnamed_Pattern_2" data-name="Unnamed Pattern 2" width="1366" height="1289" patternTransform="matrix(1, 0, 0, -1, 0, 17672)" patternUnits="userSpaceOnUse" viewBox="0 0 1366 1289"><rect class="cls-3" width="1366" height="1289"/><g class="cls-4"><rect class="cls-5" width="1366" height="1289"/></g></pattern></defs><title>404</title><path class="cls-7" d="M344.28,251.21l13.6,0,13.55.07,13.49.11c4.49,0,8.95.1,13.4.15l13.26.2q6.6.11,13.1.24l12.91.28q6.41.15,12.69.33c4.18.11,8.33.23,12.42.36l12.15.41,11.82.44c3.89.15,7.72.32,11.49.48l11.11.52q5.47.27,10.72.55t10.3.59c3.35.2,6.64.41,9.84.62s6.33.43,9.37.65,6,.45,8.88.69,5.67.46,8.37.7,5.31.49,7.83.74,4.94.5,7.27.76,4.56.52,6.7.78,4.17.54,6.11.81,3.78.54,5.51.82,3.37.56,4.89.84,3,.57,4.27.85,2.52.58,3.62.87,2.1.59,3,.88a23.54,23.54,0,0,1,2.33.89,10.91,10.91,0,0,1,1.66.89,4.09,4.09,0,0,1,1,.9,1.39,1.39,0,0,1,0,1.8,3.88,3.88,0,0,1-1,.89,11.83,11.83,0,0,1-1.66.9c-.67.29-1.44.59-2.33.88s-1.88.59-3,.88-2.31.58-3.62.87-2.74.57-4.27.85-3.16.57-4.89.84-3.57.56-5.51.83-4,.54-6.11.8-4.37.53-6.7.78-4.76.51-7.27.76-5.13.5-7.83.74-5.49.48-8.37.71-5.83.46-8.88.68-6.16.44-9.37.65-6.49.42-9.84.62-6.79.4-10.3.59-7.07.38-10.72.56-7.34.35-11.11.51-7.6.33-11.49.48-7.83.31-11.82.45l-12.15.4-12.42.37-12.69.32q-6.4.15-12.91.28t-13.1.24c-4.39.08-8.82.14-13.26.2s-8.91.11-13.4.15-9,.09-13.49.12-9,.05-13.55.06-9.06,0-13.6,0-9.06,0-13.59,0-9,0-13.55-.06-9-.07-13.49-.12-8.95-.09-13.4-.15-8.87-.12-13.26-.2-8.77-.15-13.1-.24-8.65-.18-12.91-.28l-12.69-.32-12.42-.37-12.15-.4q-6-.21-11.83-.45t-11.48-.48c-3.77-.16-7.47-.34-11.11-.51s-7.22-.37-10.72-.56-6.94-.38-10.3-.59-6.64-.4-9.84-.62-6.33-.43-9.37-.65-6-.45-8.88-.68-5.67-.47-8.37-.71-5.31-.49-7.83-.74-4.94-.5-7.27-.76-4.56-.51-6.7-.78-4.17-.53-6.11-.8-3.78-.55-5.51-.83-3.37-.55-4.89-.84-3-.56-4.27-.85-2.52-.58-3.62-.87-2.1-.58-3-.88-1.66-.59-2.33-.88a11.29,11.29,0,0,1-1.66-.9,3.88,3.88,0,0,1-1-.89,1.39,1.39,0,0,1,0-1.8,4.09,4.09,0,0,1,1-.9,10.45,10.45,0,0,1,1.66-.89,23.54,23.54,0,0,1,2.33-.89c.88-.29,1.88-.59,3-.88s2.31-.58,3.62-.87,2.74-.57,4.27-.85,3.16-.56,4.89-.84,3.57-.55,5.51-.82,4-.54,6.11-.81,4.37-.52,6.7-.78,4.76-.51,7.27-.76,5.13-.49,7.83-.74,5.49-.47,8.37-.7,5.83-.46,8.88-.69,6.16-.44,9.37-.65,6.49-.42,9.84-.62,6.79-.4,10.3-.59,7.07-.37,10.72-.55l11.11-.52c3.77-.16,7.6-.33,11.48-.48l11.83-.44,12.15-.41c4.09-.13,8.24-.25,12.42-.36s8.42-.23,12.69-.33l12.91-.28q6.5-.13,13.1-.24l13.26-.2c4.45-.05,8.91-.11,13.4-.15l13.49-.11,13.55-.07Z" transform="translate(-60.21 -40.74)"/><path class="cls-8" d="M334,236.74c-31.26,0-47.59-18.34-47.59-71.37,0-46.79,17-71.46,48.26-71.46s48.25,16.21,48.25,71.46c0,51.69-17.67,71.37-48.92,71.37Zm-.3-167.92c-45.13,0-77.53,29-77.53,96.5,0,76.56,32.4,96.83,77.53,96.83s79.46-22.2,79.46-96.83C413.13,85.55,378.8,68.82,333.67,68.82Z" transform="translate(-60.21 -40.74)"/><path class="cls-9" d="M229.12,208.75H210.47V153.81a11,11,0,0,0-11-11h-4.37a11,11,0,0,0-11,11v54.94H131.46a6.28,6.28,0,0,1-5.55-9.22l55.7-105.42a11,11,0,0,0-5-15.09l-3.29-1.55a11,11,0,0,0-14.4,4.76L91,209.31a14.93,14.93,0,0,0,13.16,22h80V266a13.19,13.19,0,0,0,13.19,13.19h0A13.2,13.2,0,0,0,210.47,266V231.27h18.65a11.26,11.26,0,0,0,0-22.52Z" transform="translate(-60.21 -40.74)"/><path class="cls-9" d="M574.61,208.75H556V153.81a11,11,0,0,0-11-11h-4.37a11,11,0,0,0-11,11v54.94H477a6.29,6.29,0,0,1-5.56-9.22l55.7-105.42a11,11,0,0,0-5-15.09l-3.29-1.55a11,11,0,0,0-14.4,4.76L436.44,209.31a14.93,14.93,0,0,0,13.16,22h80V266A13.19,13.19,0,0,0,556,266V231.27h18.66a11.26,11.26,0,0,0,0-22.52Z" transform="translate(-60.21 -40.74)"/><path class="cls-10" d="M234.27,202.32H215.61V147.37a11,11,0,0,0-11-11h-4.37a11,11,0,0,0-11,11v54.95H136.61a6.29,6.29,0,0,1-5.56-9.22l55.7-105.42a11,11,0,0,0-5-15.09L178.43,71A11,11,0,0,0,164,75.8L96.1,202.88a14.92,14.92,0,0,0,13.16,22h80v34.75a13.19,13.19,0,0,0,13.19,13.18h0a13.18,13.18,0,0,0,13.19-13.18V224.83h18.66a11.26,11.26,0,0,0,11.26-11.25h0a11.26,11.26,0,0,0-11.26-11.26Z" transform="translate(-60.21 -40.74)"/><path class="cls-10" d="M584.26,202.32H565.6V147.37a11,11,0,0,0-11-11h-4.37a11,11,0,0,0-11,11v54.95H486.6A6.29,6.29,0,0,1,481,193.1l55.7-105.42a11,11,0,0,0-5-15.09L528.43,71A11,11,0,0,0,514,75.8L446.09,202.88a14.92,14.92,0,0,0,13.16,22h80v34.75a13.19,13.19,0,0,0,26.38,0V224.83h18.66a11.26,11.26,0,0,0,11.26-11.25h0a11.26,11.26,0,0,0-11.26-11.26Z" transform="translate(-60.21 -40.74)"/><path class="cls-10" d="M344.26,231c-31.25,0-47.58-18.34-47.58-71.37,0-46.79,17-71.46,48.25-71.46s48.25,16.21,48.25,71.46c0,51.69-17.66,71.37-48.92,71.37ZM344,63c-45.12,0-77.52,29-77.52,96.5,0,76.56,32.4,96.83,77.52,96.83s79.46-22.2,79.46-96.83C423.42,79.76,389.09,63,344,63Z" transform="translate(-60.21 -40.74)"/><path class="cls-11" d="M363,77.84c-.41,1.68-2.17,3-4.12,4-4.1,2-9.15,2.56-14.05,2.75a23.48,23.48,0,0,1-3.75-.06,10.81,10.81,0,0,1-6.43-3,.86.86,0,0,1-.4-.75.85.85,0,0,1,.42-.74c2.61-2.87,7-4.63,11.35-5.89,3.33-1,9.13-3.45,12.75-3.11S363.49,75.72,363,77.84Z" transform="translate(-60.21 -40.74)"/><path class="cls-12" d="M589.08,201.42a10.93,10.93,0,1,0,1.45-21l.28,5.62-2.66-4.82a10.89,10.89,0,0,0-5.61,6.16,10.65,10.65,0,0,0-.63,3A10.93,10.93,0,0,0,589.08,201.42Z" transform="translate(-60.21 -40.74)"/><path class="cls-10" d="M602.25,266.65c-.94-4.78,3.13-9,7.15-11.78s8.72-5.46,10.09-10.14c2-6.72-3.9-12.88-8.47-18.19a65.9,65.9,0,0,1-8.68-12.89,17.83,17.83,0,0,1-2.07-5.87c-.36-3,.59-5.94,1.56-8.78q4.81-14.2,10.3-28.17" transform="translate(-60.21 -40.74)"/><path class="cls-10" d="M589.53,200A10.93,10.93,0,1,0,591,179l.27,5.63-2.66-4.83A10.92,10.92,0,0,0,583,186a10.71,10.71,0,0,0-.63,3A10.94,10.94,0,0,0,589.53,200Z" transform="translate(-60.21 -40.74)"/><path class="cls-12" d="M600.91,168.88a10.92,10.92,0,0,1,7.86-6.93l.9,5.35,1.67-5.62a10.93,10.93,0,1,1-10.43,7.2Z" transform="translate(-60.21 -40.74)"/><path class="cls-10" d="M601.51,167a10.92,10.92,0,0,1,7.86-6.93l.9,5.35,1.67-5.62a10.93,10.93,0,1,1-10.43,7.2Z" transform="translate(-60.21 -40.74)"/><path class="cls-12" d="M609.09,226.65a10.93,10.93,0,0,0,9.68-19.44l-1.29,4.31-.91-5.41h0a10.93,10.93,0,0,0-7.46,20.55Z" transform="translate(-60.21 -40.74)"/><path class="cls-10" d="M609.62,224.69a10.93,10.93,0,0,0,9.67-19.44L618,209.57l-.91-5.41h0a10.92,10.92,0,1,0-7.45,20.54Z" transform="translate(-60.21 -40.74)"/><path class="cls-12" d="M597.72,244.8a10.92,10.92,0,1,0,2.11-8.56l4.87,7.33L598,239.68A11,11,0,0,0,597.72,244.8Z" transform="translate(-60.21 -40.74)"/><path class="cls-10" d="M598.17,243.35a10.91,10.91,0,1,0,2.1-8.56l4.87,7.33-6.65-3.89A10.7,10.7,0,0,0,598.17,243.35Z" transform="translate(-60.21 -40.74)"/><path class="cls-12" d="M65.15,228a7.18,7.18,0,1,0,.95-13.77l.18,3.69-1.75-3.16A7.18,7.18,0,0,0,65.15,228Z" transform="translate(-60.21 -40.74)"/><path class="cls-10" d="M73.8,270.9c-.62-3.15,2-5.93,4.69-7.74s5.73-3.59,6.63-6.67c1.3-4.41-2.56-8.46-5.56-12a43.2,43.2,0,0,1-5.7-8.47,11.74,11.74,0,0,1-1.37-3.85,13.41,13.41,0,0,1,1-5.77q3.17-9.34,6.77-18.51" transform="translate(-60.21 -40.74)"/><path class="cls-10" d="M65.44,227.08a7.18,7.18,0,1,0,1-13.76l.18,3.69-1.75-3.17a7.18,7.18,0,0,0,.61,13.24Z" transform="translate(-60.21 -40.74)"/><path class="cls-12" d="M72.92,206.66a7.16,7.16,0,0,1,5.17-4.55l.59,3.51,1.09-3.69a7.18,7.18,0,1,1-6.85,4.73Z" transform="translate(-60.21 -40.74)"/><path class="cls-10" d="M73.31,205.39a7.18,7.18,0,0,1,5.17-4.55l.59,3.51,1.1-3.69a7.18,7.18,0,1,1-6.86,4.73Z" transform="translate(-60.21 -40.74)"/><path class="cls-12" d="M78.3,244.61a7.18,7.18,0,0,0,6.35-12.77l-.84,2.84-.6-3.56h0a7.17,7.17,0,0,0-4.89,13.49Z" transform="translate(-60.21 -40.74)"/><path class="cls-10" d="M78.64,243.33A7.18,7.18,0,0,0,85,230.56l-.84,2.83-.6-3.55h0a7.18,7.18,0,0,0-4.9,13.5Z" transform="translate(-60.21 -40.74)"/><path class="cls-12" d="M70.82,256.54a7.18,7.18,0,1,0,1.39-5.63l3.2,4.82L71,253.17a7.26,7.26,0,0,0-.21,3.37Z" transform="translate(-60.21 -40.74)"/><path class="cls-10" d="M71.12,255.59A7.17,7.17,0,1,0,72.5,250l3.2,4.82-4.37-2.56A7.12,7.12,0,0,0,71.12,255.59Z" transform="translate(-60.21 -40.74)"/><path class="cls-13" d="M315,140.28a2.61,2.61,0,0,1,1.86.77,2.88,2.88,0,0,1,.57.85,2.67,2.67,0,0,1,.2,1,2.62,2.62,0,0,1-.2,1,2.76,2.76,0,0,1-.57.85,2.61,2.61,0,0,1-1.86.77,2.45,2.45,0,0,1-1-.2,2.49,2.49,0,0,1-.86-.57,2.57,2.57,0,0,1-.56-.85,2.45,2.45,0,0,1-.2-1,2.5,2.5,0,0,1,.2-1,2.67,2.67,0,0,1,.56-.85,2.66,2.66,0,0,1,1.86-.77Z" transform="translate(-60.21 -40.74)"/><path class="cls-13" d="M363.87,140.28a2.61,2.61,0,0,1,1.86.77,2.88,2.88,0,0,1,.57.85,2.67,2.67,0,0,1,.2,1,2.62,2.62,0,0,1-.2,1,2.76,2.76,0,0,1-.57.85,2.61,2.61,0,0,1-1.86.77,2.63,2.63,0,0,1-2.62-2.62,2.5,2.5,0,0,1,.2-1,2.54,2.54,0,0,1,.57-.85,2.59,2.59,0,0,1,.85-.57A2.62,2.62,0,0,1,363.87,140.28Z" transform="translate(-60.21 -40.74)"/><path class="cls-14" d="M630.5,99.23c-29.51-1-57.64-10.56-84.45-21s-53.4-22-82.22-27.49c-18.53-3.55-39.71-4-54.64,5.88-14.37,9.56-19,26.05-21.5,41.36-1.88,11.52-3,23.64,2.16,34.42,3.58,7.49,9.92,13.78,14.3,21,15.26,24.95,4.47,55.72-12.06,80.1-7.76,11.44-16.75,22.32-22.74,34.49s-8.75,26.11-3.52,38.51,17.56,21.54,31,28c27.22,13.18,59.28,16.95,90.55,19.11,69.22,4.74,138.82,2.69,208.22.64,25.68-.77,51.48-1.53,76.75-5.51,14-2.21,28.52-5.71,38.71-14.16,12.93-10.73,16.13-28.9,7.47-42.35-14.54-22.56-54.72-28.17-64.89-52.38-5.59-13.33.16-28.18,8.28-40.54,17.43-26.52,46.66-49.78,48.2-80.1,1.06-20.82-13-41.66-34.72-51.51-22.76-10.34-54.33-9-71.13,8.05C686.94,93.36,656.55,100.13,630.5,99.23Z" transform="translate(-60.21 -40.74)"/><path class="cls-9" d="M410.59,261.24c2.05,2.76,3,14.47,3,14.47s-10.92-4.3-13-7.06a6.22,6.22,0,0,1,10-7.41Z" transform="translate(-60.21 -40.74)"/><path class="cls-9" d="M430.18,270.43c.21,3.43-5.37,13.76-5.37,13.76s-6.84-9.55-7.05-13a6.22,6.22,0,1,1,12.42-.78Z" transform="translate(-60.21 -40.74)"/><path class="cls-9" d="M449.16,296.84c-1.54,3.07-11.58,9.17-11.58,9.17s-1.07-11.7.47-14.77a6.23,6.23,0,0,1,11.12,5.6Z" transform="translate(-60.21 -40.74)"/><path class="cls-9" d="M459,320c-1,3.29-9.87,11-9.87,11s-3-11.35-2-14.64A6.22,6.22,0,0,1,459,320Z" transform="translate(-60.21 -40.74)"/><path class="cls-9" d="M414.71,292.49c3.39.46,14.11-4.38,14.11-4.38s-9.05-7.49-12.46-7.95a6.22,6.22,0,0,0-1.65,12.33Z" transform="translate(-60.21 -40.74)"/><path class="cls-9" d="M426.59,319.49c3.39-.58,12.15-8.4,12.15-8.4s-10.87-4.44-14.26-3.86a6.22,6.22,0,1,0,2.12,12.26Z" transform="translate(-60.21 -40.74)"/><path class="cls-15" d="M692.15,195.58s14.37-25.44,36-32.78A44.28,44.28,0,0,0,750.6,146a74.93,74.93,0,0,0,6.6-11.92" transform="translate(-60.21 -40.74)"/><path class="cls-9" d="M770.8,129.45c-2.47,2.39-13.95,4.86-13.95,4.86s2.82-11.4,5.29-13.79a6.22,6.22,0,0,1,8.66,8.93Z" transform="translate(-60.21 -40.74)"/><path class="cls-9" d="M764.31,150.05c-3.39.67-14.36-3.49-14.36-3.49s8.56-8.05,11.93-8.71a6.22,6.22,0,1,1,2.43,12.2Z" transform="translate(-60.21 -40.74)"/><path class="cls-9" d="M740.68,172.38c-3.25-1.12-10.63-10.26-10.63-10.26s11.45-2.62,14.7-1.5a6.22,6.22,0,0,1-4.07,11.76Z" transform="translate(-60.21 -40.74)"/><path class="cls-9" d="M719,185.24c-3.39-.56-12.18-8.33-12.18-8.33s10.84-4.52,14.23-4a6.23,6.23,0,1,1-2,12.29Z" transform="translate(-60.21 -40.74)"/><path class="cls-9" d="M740.38,137.65c0,3.44,6.23,13.41,6.23,13.41s6.23-10,6.23-13.39a6.22,6.22,0,1,0-12.44,0Z" transform="translate(-60.21 -40.74)"/><path class="cls-9" d="M715.2,153c1,3.28,9.94,10.92,9.94,10.92s3-11.36,1.93-14.64A6.22,6.22,0,0,0,715.2,153Z" transform="translate(-60.21 -40.74)"/><path class="cls-9" d="M692.79,171.31c.46,3.39,8,12.45,8,12.45s4.84-10.7,4.38-14.11a6.22,6.22,0,1,0-12.33,1.66Z" transform="translate(-60.21 -40.74)"/><path class="cls-16" d="M770.8,129.45c-2.47,2.39-13.95,4.86-13.95,4.86s2.82-11.4,5.29-13.79a6.22,6.22,0,0,1,8.66,8.93Z" transform="translate(-60.21 -40.74)"/><path class="cls-16" d="M764.31,150.05c-3.39.67-14.36-3.49-14.36-3.49s8.56-8.05,11.93-8.71a6.22,6.22,0,1,1,2.43,12.2Z" transform="translate(-60.21 -40.74)"/><path class="cls-16" d="M740.68,172.38c-3.25-1.12-10.63-10.26-10.63-10.26s11.45-2.62,14.7-1.5a6.22,6.22,0,0,1-4.07,11.76Z" transform="translate(-60.21 -40.74)"/><path class="cls-16" d="M719,185.24c-3.39-.56-12.18-8.33-12.18-8.33s10.84-4.52,14.23-4a6.23,6.23,0,1,1-2,12.29Z" transform="translate(-60.21 -40.74)"/><path class="cls-16" d="M740.38,137.65c0,3.44,6.23,13.41,6.23,13.41s6.23-10,6.23-13.39a6.22,6.22,0,1,0-12.44,0Z" transform="translate(-60.21 -40.74)"/><path class="cls-16" d="M715.2,153c1,3.28,9.94,10.92,9.94,10.92s3-11.36,1.93-14.64A6.22,6.22,0,0,0,715.2,153Z" transform="translate(-60.21 -40.74)"/><path class="cls-16" d="M692.79,171.31c.46,3.39,8,12.45,8,12.45s4.84-10.7,4.38-14.11a6.22,6.22,0,1,0-12.33,1.66Z" transform="translate(-60.21 -40.74)"/><path class="cls-15" d="M693,195.08s2.82-29.09,19.63-44.56a44.28,44.28,0,0,0,13.7-24.42,75.32,75.32,0,0,0,1.23-13.56" transform="translate(-60.21 -40.74)"/><path class="cls-9" d="M738.07,102.72c-1.27,3.19-10.78,10.1-10.78,10.1s-2-11.56-.76-14.75a6.22,6.22,0,0,1,11.54,4.66Z" transform="translate(-60.21 -40.74)"/><path class="cls-9" d="M740.49,124.22c-2.81,2-14.53,2.62-14.53,2.62s4.56-10.82,7.37-12.8a6.22,6.22,0,1,1,7.16,10.17Z" transform="translate(-60.21 -40.74)"/><path class="cls-9" d="M727.92,154.21c-3.42.29-13.87-5.08-13.87-5.08s9.41-7,12.83-7.33a6.22,6.22,0,0,1,1,12.4Z" transform="translate(-60.21 -40.74)"/><path class="cls-9" d="M713.3,174.76c-3.33.85-14.53-2.66-14.53-2.66s8.08-8.52,11.4-9.38a6.22,6.22,0,1,1,3.13,12Z" transform="translate(-60.21 -40.74)"/><path class="cls-9" d="M713.59,122.57c1.39,3.14,11.12,9.75,11.12,9.75s1.65-11.63.26-14.77a6.22,6.22,0,0,0-11.38,5Z" transform="translate(-60.21 -40.74)"/><path class="cls-9" d="M696.8,146.82c2.26,2.58,13.51,6,13.51,6s-1.9-11.59-4.17-14.17a6.22,6.22,0,1,0-9.35,8.21Z" transform="translate(-60.21 -40.74)"/><path class="cls-9" d="M683.7,172.64c1.8,2.92,12.32,8.15,12.32,8.15s.08-11.74-1.7-14.67a6.22,6.22,0,0,0-10.59,6.52Z" transform="translate(-60.21 -40.74)"/><path class="cls-17" d="M671.36,81.16c.71-2.58,1.56-5.17,2.15-7.78C672.8,76,671.94,78.59,671.36,81.16Z" transform="translate(-60.21 -40.74)"/><path class="cls-17" d="M668.21,106c-.06-.1-.1-.2-.15-.29s0-.08-.06-.12l-.28.11-.57.2-.43.12-.37.09,0,.08a4,4,0,0,0,.47-.11l0,.53c.18,0,.34,0,.5,0h1.08C668.38,106.41,668.29,106.21,668.21,106ZM452.65,368.78s-.7,1.46-1.61,3.62C569.15,370.71,452.65,368.78,452.65,368.78ZM667.53,104.3a12.64,12.64,0,0,1,2.46,0,1.55,1.55,0,0,1,.32,0,3.14,3.14,0,0,1,.67.17,5,5,0,0,1,.9,2.38l-.23,0-.23,0-1.17.22-.43.08-.9.22-.17-.33c-.09-.18-.19-.36-.28-.55s-.19-.39-.28-.58-.1-.2-.15-.29,0-.08-.06-.12l-.06-.14c-.26-.53-.5-1-.73-1.57l-.06-.16.32,0v.11Zm2.54,5.23v0l0,0c.17.11.34.22.5.34l.39.3c-.09.15-.18.3-.27.42-.15-.23-.29-.46-.43-.69A1.57,1.57,0,0,1,670.07,109.53Zm.8-.67c-.46.09-.83.18-1.07.24-.3-.53-.58-1.07-.84-1.61a11.68,11.68,0,0,1,1.91,1.37Zm1.42,3.75a1.8,1.8,0,0,1,.08.39c-.11-.14-.21-.29-.32-.42l-.1-.14-.07-.1.16-.22v0A1.38,1.38,0,0,1,672.29,112.61Zm82,130.35c-2-2.68-6-31.48-6-31.48s-7.82-20.47-5.69-28.64-5.82-29.07-5.82-29.07-5.25-2.29-5.54-5.68c0,0-21.45-6.78-22.46-11.86-.81-4.17-14.12-7.17-18.9-8.11-1.46-5.88-2.92-11.37-4-14.37-.3-.93-.57-1.73-.82-2.37-1.83-4.66-7.48-5.09-11.57-4.71a6.4,6.4,0,0,0-1-2.22,1.23,1.23,0,0,0-.39-.59,2,2,0,0,0-.28-.2,1.44,1.44,0,0,0-.28-.37,3.28,3.28,0,0,0-.38-.27l-.31-.14a4.05,4.05,0,0,0-.76-.2,4.73,4.73,0,0,0-.91-.12,5.73,5.73,0,0,0,1.95-1.43,4,4,0,0,0,.8-1.48,4.66,4.66,0,0,0,.18-1.39,3.58,3.58,0,0,1-.38.55c.18-1.88-.82-3.78-1.38-5.65a16.74,16.74,0,0,1-.38-7.48h0c.57-3.76,2-7.55,2.93-11.38v-.06a29.21,29.21,0,0,0,.92-5.8,25.47,25.47,0,0,0-2.47-11.5c-1.45-3.19-3.58-6.33-6.84-7.63-2.42-1-5.14-.82-7.75-1-5.86-.37-11.44-2.43-17-4.3s-11.3-3.58-17.16-3.25S610.71,43.93,608,49.12a50.74,50.74,0,0,1-2.34,4.94c-1.9,2.87-5.3,4.3-8.14,6.28a16.08,16.08,0,0,0-6.35,8.14,10.89,10.89,0,0,0-.23,5.58,9.52,9.52,0,0,0,.36,1.23,8.58,8.58,0,0,0,1.84,3,8.88,8.88,0,0,0,2.09,1.62,12.33,12.33,0,0,0,3.1,1.21l-.12.39c-.07.22-.13.42-.19.66-.14.52-.27,1-.38,1.58a.24.24,0,0,0,0,.12,33.5,33.5,0,0,0-.78,7.33,31.25,31.25,0,0,0,.17,3.49,35.33,35.33,0,0,0,33.43,31.65c.61,0,1.21,0,1.83,0h.84q.42.56.81,1.11c.26.36.5.73.72,1.1l-.61-.64-.62-.56a5.62,5.62,0,0,1-.55.64,10.19,10.19,0,0,0-1.23-.35h0a15.73,15.73,0,0,0-8,.53A34.83,34.83,0,0,0,611.88,135l-22.59,13.56L577.07,156l-4.41,10.77s-3.31,12.79-7,27.44l-.42.14a6.79,6.79,0,0,0-.9,0,8.25,8.25,0,0,0-8.27,7.92c-7.33,8.9-7.74,17.8-6,21.89a5.7,5.7,0,0,0,.58,1.09A101.26,101.26,0,0,1,556,235.46c0,.37-.09.68-.1.91a.88.88,0,0,0,0,.23s1.27,19.2-3,24.71c-.93,1.2-.79,2.77,0,4.52C555.78,272.11,567,280.5,567,280.5s13.47-.08,21-.89c0,.75,0,1.5-.06,2.23-.17,7.41-.17,13.62-.17,13.62l-.28,7.77s-2.54,16.37-3.81,20.88c-.8,2.83.12,29,.93,48.31H717.23c1.56-11.4-.64-46-.64-46a91.25,91.25,0,0,1-2.17-16.76v-.06c0-.68,0-1.35,0-2l1,0,1.73-.06h.16s0-.16.14-.43a8.23,8.23,0,0,1,.93-1.85A4.6,4.6,0,0,1,722,303a9.68,9.68,0,0,0,4.11-2h0c4.5-3,10.46-8.67,11.9-9.6,2-1.27,11.51-9.75,11.51-9.75s1.42-1.79,2.93-4l0-.07c1.89-2.72,3.89-6,3.39-7-.84-1.83.57-6.21.57-6.21C760.91,256.36,756.23,245.64,754.24,243ZM668,105.61l-.28.11-.57.2-.43.12a2.49,2.49,0,0,1-.37.09l0,.08a4,4,0,0,0,.47-.11l0,.53c.18,0,.34,0,.5,0h1.08Z" transform="translate(-60.21 -40.74)"/><path class="cls-18" d="M575.62,168.27l-2.55,1.12S556.5,233.78,556.5,239s35.14,34.16,35.14,34.16l5.49-37S589.25,151.25,575.62,168.27Z" transform="translate(-60.21 -40.74)"/><path class="cls-19" d="M652.71,147.79,638,140.12a29.49,29.49,0,0,0-4.3-9.81c-2.15-3.1-5-6.15-8.57-7.73-9-4,38.06-25.21,38.06-25.21a77.38,77.38,0,0,0,2.61,7.5c2.43,6,6.45,13.72,11.63,15.92C686.26,124.54,652.71,147.79,652.71,147.79Z" transform="translate(-60.21 -40.74)"/><path class="cls-20" d="M665.82,104.87a35.07,35.07,0,0,1-32.1,25.44c-2.15-3.1-5-6.15-8.57-7.73-9-4,38.06-25.21,38.06-25.21a77.38,77.38,0,0,0,2.61,7.5Z" transform="translate(-60.21 -40.74)"/><path class="cls-19" d="M667.14,94.17a34.89,34.89,0,1,1-10.22-24.83A35.06,35.06,0,0,1,667.14,94.17Z" transform="translate(-60.21 -40.74)"/><polygon class="cls-21" points="611.99 102.55 602.43 124.86 594 139.66 567 139.66 559.13 119.42 562.32 98.42 582.94 98.42 596.25 97.67 600.75 96.17 603.64 97.82 611.99 102.55"/><path class="cls-20" d="M668.91,113.55s6,1.27.62,5.65-23.76,18.3-23.76,18.3,6.47,5.76,5.13,12.51l21.44-11.95,3.82-19.12S676.58,113.19,668.91,113.55Z" transform="translate(-60.21 -40.74)"/><path class="cls-20" d="M650,137.5l-13.64,2.25s2.82,10.4,1.41,13.35c0,.1-.08.19-.11.29l-5.56,15,4.17,11.81,14.43-19.69-4.92-7.45s5.2-6.89,8.3-9.28S650,137.5,650,137.5Z" transform="translate(-60.21 -40.74)"/><path class="cls-22" d="M650,136.92l-13.64,2.24s2.82,10.41,1.41,13.36c0,.09-.08.19-.11.28l-5.56,15,4.17,11.81L650.69,160l-4.92-7.45s5.2-6.89,8.3-9.28S650,136.92,650,136.92Z" transform="translate(-60.21 -40.74)"/><path class="cls-21" d="M669.48,112.43s6,1.27.62,5.65-24.33,19.42-24.33,19.42,7,4.64,5.7,11.38l21.44-11.94,3.81-19.12S677.14,112.07,669.48,112.43Z" transform="translate(-60.21 -40.74)"/><path class="cls-20" d="M634.65,131.64s1.3,2.43,7.05,6.82c0,0-9.56,5.08-5.91,12.23l-14.62-3.81-2.25-7Z" transform="translate(-60.21 -40.74)"/><path class="cls-21" d="M634.09,131.08s1.3,2.43,7,6.82c0,0-9.56,5.06-5.9,12.23l-14.62-3.81-2.25-7Z" transform="translate(-60.21 -40.74)"/><path class="cls-20" d="M672.2,143.29l-9.56,22.3-8.41,14.81h-27l-7.88-20.24,3.19-21h5.73c-.09,4.9,1.7,10.66,1.58,12.8-.19,3.51,5.25,22.49,5.25,22.49S646.48,156,651,154.39c2.83-1,8.82-9.6,12.88-15.83Z" transform="translate(-60.21 -40.74)"/><path class="cls-18" d="M709.86,260.68l-1,1.22s7,35.28,5.09,43.3a22.46,22.46,0,0,0-.56,4.4v.06c-.35,8.15,2.12,18.74,2.12,18.74s2,31.19.84,44H584.75c-.77-19-1.6-43.54-.85-46.26,1.27-4.5,3.82-20.81,3.82-20.81l.27-7.73s0-7.47.23-15.8c.1-3.74.25-7.67.45-11.15a58.42,58.42,0,0,1,1.16-9.89,22.57,22.57,0,0,0,.54-4.18,2.88,2.88,0,0,1,0-.41c0-.42.05-.88.06-1.35v-.42c.08-2.73,0-6,0-9.32v-.56c-.07-2.52-.17-5.08-.29-7.53-.37-7.62-.85-14.07-.85-14.07L573.1,169.36l4.36-10.73,12.09-7.41,22.35-13.49c10.91-9,18.09-7.89,20.82-6.91a6.71,6.71,0,0,1,.78.32l.22.11a2.07,2.07,0,0,1,.25.15,5.23,5.23,0,0,0-1.9,1.56,6.89,6.89,0,0,0-1.17,2.55,11,11,0,0,0-.3,1.73c-.06.61-.08,1.25-.08,1.89a32.75,32.75,0,0,0,.36,4.19v.09c.14,1,.31,2,.48,2.88v0c.2,1.07.39,2,.53,2.9q0,.22.06.42a8.79,8.79,0,0,1,.13,1.7,20.57,20.57,0,0,0,.56,4.06c.11.56.23,1.16.37,1.78.19.85.4,1.78.63,2.72.12.51.25,1.05.39,1.58l.15.64.09.33c.9,3.59,1.88,7.16,2.48,9.32l.58,2.06s6.38-10.32,11.48-16.19l.21-.24c.51-.58,1-1.11,1.48-1.58a8.76,8.76,0,0,1,2.72-2,2.77,2.77,0,0,0,.46-.22c2.09-1.18,5.45-5.47,8.6-10,.31-.42.61-.89.91-1.32.7-1,1.38-2,2-3l1.41-2.15c2.12-3.3,3.61-5.76,3.61-5.76l2.94-.13.51,0H674l13.35-.62s.58.09,1.52.28a.23.23,0,0,1,.16,0c4.74.94,17.9,3.92,18.71,8,1,5.06,22.21,11.81,22.21,11.81.28,3.39,5.48,5.62,5.48,5.62s7.87,20.81,5.77,29,5.41,28,5.61,28.52l-1.43,1.82Z" transform="translate(-60.21 -40.74)"/><path class="cls-20" d="M668.91,112.07s13-3.69,16,3.9,9.56,38.24,9.56,38.24-17.16,3.24-21.65,0a13,13,0,0,0-9.14-2.39l-9.7,6.61-2.87-.85s15.52-23.07,18.89-30.91S674.47,115.33,668.91,112.07Z" transform="translate(-60.21 -40.74)"/><path class="cls-18" d="M668.34,110.38s13-3.69,16,3.9,9.56,38.24,9.56,38.24-17.15,3.23-21.66,0a12.92,12.92,0,0,0-9.13-2.39l-9.71,6.61-2.87-.85S666,132.82,669.41,125,673.9,113.64,668.34,110.38Z" transform="translate(-60.21 -40.74)"/><path class="cls-20" d="M581.1,232.66s9.7,2.39,11.53,7.87-7.17,5.62-7.17,5.62S580,236.45,581.1,232.66Z" transform="translate(-60.21 -40.74)"/><path class="cls-20" d="M617.23,273.14S593.47,321.79,599,326.43,617.23,273.14,617.23,273.14Z" transform="translate(-60.21 -40.74)"/><path class="cls-20" d="M650,237.3s19,47.25,15.18,54.55,8.16,0,8.16,0Z" transform="translate(-60.21 -40.74)"/><path class="cls-19" d="M676.42,284S612.31,287.07,631,307s57.08.85,57.08.85Z" transform="translate(-60.21 -40.74)"/><path class="cls-20" d="M667.14,94.17a34.77,34.77,0,0,1-2.65,13.4c-.59.07-1.18.11-1.75.14-.85-1.86-.39-4-.38-6.06s-.73-4.45-2.7-5c-3.93-1.11-6.64,6.24-10.52,4.91-3-1-2.19-5.51-3.9-8.11-1.35-2-4.06-2.63-6.16-3.92-4.48-2.75-4.35-7.15-6.43-11.31-2.18-4.36-6.78-3.07-10.77-.5-3,2-5.66,4.58-8.9,6.14a21.93,21.93,0,0,1-9.08,1.92,20.26,20.26,0,0,1-5.7-.6,35.06,35.06,0,0,1,68.94,9Z" transform="translate(-60.21 -40.74)"/><path class="cls-23" d="M621.89,76.6c-3,2-5.66,4.57-8.9,6.14a22.25,22.25,0,0,1-9.08,1.92c-3.82.08-7.92-.59-10.53-3.34a10.15,10.15,0,0,1-2-9.79,15.9,15.9,0,0,1,6.29-8.11c2.85-2,6.16-3.39,8-6.26a50.25,50.25,0,0,0,2.32-4.92c2.65-5.16,8.63-8,14.4-8.31s11.51,1.37,17,3.24,11,3.91,16.85,4.3c2.58.16,5.27,0,7.67,1,3.22,1.31,5.34,4.44,6.78,7.63a25.52,25.52,0,0,1,2.45,11.44c-.36,8.38-5.89,16.6-3.46,24.62.64,2.14,1.85,4.34,1.21,6.48-1,3.12-5,3.84-8.23,4-.85-1.86-.4-4-.38-6s-.74-4.46-2.71-5c-3.93-1.09-6.64,6.24-10.5,4.91-2.95-1-2.19-5.5-3.9-8.1-1.35-2.06-4.06-2.64-6.17-3.93-4.47-2.75-4.34-7.15-6.42-11.31C630.5,72.73,625.89,74,621.89,76.6Z" transform="translate(-60.21 -40.74)"/><path class="cls-18" d="M559.72,237.86,556.49,239s1.27,19.12-3,24.61,13.92,19.11,13.92,19.11,24.89-.14,25.59-2.11-1.27-35.43-1.27-35.43-13.36-5.21-12.24-13.5c0,0-4.07,19.54-10.12,18.7S556.5,244.47,559.72,237.86Z" transform="translate(-60.21 -40.74)"/><path class="cls-20" d="M570.51,240.67a9.23,9.23,0,0,1,1.66.15,9.44,9.44,0,0,1,1.6.44,9.64,9.64,0,0,1,1.48.72,8.88,8.88,0,0,1,1.29,1,7.92,7.92,0,0,1,1.06,1.19,7.19,7.19,0,0,1,.79,7.32,7.68,7.68,0,0,1-.79,1.35,7.85,7.85,0,0,1-1.06,1.18,8.88,8.88,0,0,1-1.29,1,9.64,9.64,0,0,1-1.48.72,8.6,8.6,0,0,1-1.6.44,9.26,9.26,0,0,1-3.32,0,8.92,8.92,0,0,1-1.61-.44,10,10,0,0,1-1.47-.72,8.37,8.37,0,0,1-1.29-1,7.85,7.85,0,0,1-1.06-1.18,7.68,7.68,0,0,1-.79-1.35,7.23,7.23,0,0,1-.49-4.51,7.56,7.56,0,0,1,1.28-2.81,7.92,7.92,0,0,1,1.06-1.19,8.37,8.37,0,0,1,1.29-1,10,10,0,0,1,1.47-.72,9.82,9.82,0,0,1,1.61-.44A9.15,9.15,0,0,1,570.51,240.67Z" transform="translate(-60.21 -40.74)"/><path class="cls-19" d="M579.84,238.42s-1.7-51.74-16.45-40.21-14.9,25.31-12.09,29.39,11.81,24.46,11.81,24.46a10.32,10.32,0,0,0,15.26-6.78Z" transform="translate(-60.21 -40.74)"/><path class="cls-20" d="M671.89,107.37a1.27,1.27,0,0,0-.39-.58c-.72-.67-2.29-.9-4.66-.7l.1,1.12c3.15-.27,3.78.36,3.86.47v.1l.09.14a4.69,4.69,0,0,1,.85,3.73c-.69,3.45-4.93,6.2-5,6.23l-.11.06-.06.1c-1.83,2.72-12.18,10.38-14.89,12.37l-.24-.27c-1.21,1.05-11.86,10.37-12.44,14-.37,2.24-2.9,3.11-3.81,3.35a23.77,23.77,0,0,1-5.74-6c-1.53-2.63,4.63-7.77,5.17-9.77l-.84-.87c-.09.32-8,7.71-5.8,11.49a25.13,25.13,0,0,0,6.11,6.48c-.36,3.27-2.6,22.48-6,27-4.28,5.66-7.88,34.17-7.48,44.13.35,8.84-2,25.55-9.67,32.72a12.33,12.33,0,0,1-10.2,3.39h-.19a30.11,30.11,0,0,1-20.69-6.78c-7.69-6.47-12.05-17-13-31.4h-.18l-.08-4.18a8.14,8.14,0,1,0-1.22.1h.1l.07,4.15-.37,0c.93,14.83,5.51,25.8,13.56,32.58a31.38,31.38,0,0,0,21.87,7.16,16,16,0,0,0,1.7.09,13.89,13.89,0,0,0,9.74-3.92c8.13-7.56,10.6-24.88,10.21-34-.42-10.55,3.35-38,7.14-43s6-24.05,6.36-27.75c1.34-.38,4.38-1.57,4.9-4.67.37-2.23,7.49-9.13,11.86-12.95l-.13-.15a162.44,162.44,0,0,0,13.32-10.63c1.13-1.08,2.24-2.16,3.41-3.19a10.88,10.88,0,0,0,3.67-5.56A5.84,5.84,0,0,0,671.89,107.37Z" transform="translate(-60.21 -40.74)"/><path class="cls-24" d="M634,148.47a26,26,0,0,1-6.51-6.78c-2.19-3.77,5.71-11.16,5.8-11.48l.85.87c-.54,2-6.7,7.14-5.17,9.76a24.79,24.79,0,0,0,6,6.26Z" transform="translate(-60.21 -40.74)"/><path class="cls-18" d="M651.16,131.23l-.66-.91c.13-.1,13.44-9.73,15.54-12.84l.07-.1.1-.06s4.28-2.77,5-6.23a4.69,4.69,0,0,0-.85-3.73l-.09-.14v-.1c-.09-.11-.71-.74-3.86-.47l-.1-1.12c2.37-.2,3.93,0,4.66.7a1.25,1.25,0,0,1,.39.59,5.78,5.78,0,0,1,.95,4.49,10.89,10.89,0,0,1-3.66,5.57c-1.17,1-2.29,2.11-3.41,3.19C661,124.15,651.62,130.89,651.16,131.23Z" transform="translate(-60.21 -40.74)"/><rect class="cls-18" x="565.01" y="212.18" width="1.12" height="6.83" transform="translate(-64.08 -30.31) rotate(-1.05)"/><path class="cls-9" d="M564.86,196.81a7.82,7.82,0,0,1,1.6.16,8.17,8.17,0,0,1,1.53.46,8.42,8.42,0,0,1,1.42.76,8.7,8.7,0,0,1,1.25,1,7.94,7.94,0,0,1,1,1.24,7.76,7.76,0,0,1,.76,1.42,8.3,8.3,0,0,1,.47,1.54,8.08,8.08,0,0,1,0,3.2,8.3,8.3,0,0,1-.47,1.54,7.67,7.67,0,0,1-.76,1.41,7.57,7.57,0,0,1-1,1.25,8.7,8.7,0,0,1-1.25,1,7.71,7.71,0,0,1-1.42.75,7.51,7.51,0,0,1-1.53.47,8.08,8.08,0,0,1-3.2,0,7.6,7.6,0,0,1-1.54-.47,7.71,7.71,0,0,1-1.42-.75,8.14,8.14,0,0,1-2.26-2.27,8.12,8.12,0,0,1-1.23-2.95,8.61,8.61,0,0,1,0-3.2,8.3,8.3,0,0,1,.47-1.54,8.42,8.42,0,0,1,.76-1.42,8.62,8.62,0,0,1,1-1.24,8.11,8.11,0,0,1,1.24-1,8.42,8.42,0,0,1,1.42-.76,8.27,8.27,0,0,1,1.54-.46A7.75,7.75,0,0,1,564.86,196.81Z" transform="translate(-60.21 -40.74)"/><path class="cls-18" d="M564.86,198.2a6.49,6.49,0,0,1,1.32.13,7,7,0,0,1,1.28.39,6.89,6.89,0,0,1,2.21,1.47,7,7,0,0,1,1.48,2.21,7.26,7.26,0,0,1,.39,1.28,6.87,6.87,0,0,1,0,2.66,6.91,6.91,0,0,1-.39,1.27,6.35,6.35,0,0,1-.63,1.18,7,7,0,0,1-1.88,1.88,6.35,6.35,0,0,1-1.18.63,7,7,0,0,1-1.28.39,6.49,6.49,0,0,1-1.32.13,6.59,6.59,0,0,1-1.33-.13,7,7,0,0,1-1.28-.39,6.69,6.69,0,0,1-1.18-.63,6.94,6.94,0,0,1-1-.85,6.47,6.47,0,0,1-.85-1,7.81,7.81,0,0,1-.63-1.18,6.2,6.2,0,0,1-.38-1.27,6.87,6.87,0,0,1,0-2.66,6.48,6.48,0,0,1,.38-1.28,8.21,8.21,0,0,1,.63-1.17,6.54,6.54,0,0,1,.85-1,6.88,6.88,0,0,1,1-.84,6.69,6.69,0,0,1,1.18-.63,7,7,0,0,1,1.28-.39A6.59,6.59,0,0,1,564.86,198.2Z" transform="translate(-60.21 -40.74)"/><path class="cls-24" d="M601.79,257.21a13.66,13.66,0,0,1-1.69-.08A31.46,31.46,0,0,1,578.23,250c-8.06-6.78-12.62-17.74-13.56-32.59l1.69-.1c.91,14.36,5.26,24.93,13,31.4A30.23,30.23,0,0,0,600,255.46h.19a12.39,12.39,0,0,0,10.2-3.39c7.71-7.18,10-23.88,9.67-32.73-.42-10,3.17-38.47,7.46-44.13,3.75-5,6.08-27.28,6.1-27.5l.06-.64.63-.11s3.7-.7,4.16-3.43c.59-3.57,11.23-12.9,12.44-13.95l1.1,1.27c-4.39,3.81-11.51,10.71-11.86,13-.52,3.1-3.56,4.29-4.9,4.66-.42,3.72-2.65,22.85-6.35,27.76s-7.57,32.49-7.14,43c.36,9.15-2.09,26.47-10.21,34A13.86,13.86,0,0,1,601.79,257.21Z" transform="translate(-60.21 -40.74)"/><path class="cls-20" d="M740.25,208.76l4.92,5.2s3.94,28.68,5.91,31.36,6.61,13.35,2.25,21.37c0,0-1.41,4.36-.57,6.18s-6.32,11-6.32,11-9.42,8.43-11.39,9.7-12.37,11.39-15.88,11.53-4.67,4.5-4.67,4.5l-19.82.7s-10.95-.57-13.33,1c0,0,1.27-16.73-11-27.7l15.6-5.63s5.91-2.54,7.73-5.2a9.63,9.63,0,0,1,4.66-3.51s4.36-3.09,4.5-4.78,5.33-3.75,5.33-3.75l-2.94-25.07L706.82,194s4.92-34.87,15.32-32.9S740.25,208.76,740.25,208.76Z" transform="translate(-60.21 -40.74)"/><path class="cls-18" d="M742,208.76l4.92,5.2s3.94,28.68,5.9,31.36,6.61,13.35,2.25,21.37c0,0-1.4,4.36-.56,6.18s-6.32,11-6.32,11-9.42,8.43-11.4,9.7-12.37,11.39-15.88,11.53-4.66,4.5-4.66,4.5l-19.82.7s-11-.57-13.34,1c0,0,1.27-16.73-11-27.7l15.6-5.63s5.91-2.54,7.74-5.2a9.63,9.63,0,0,1,4.66-3.51s4.36-3.09,4.5-4.78,5.32-3.75,5.32-3.75L707,235.61,708.51,194s4.92-34.87,15.33-32.9S742,208.76,742,208.76Z" transform="translate(-60.21 -40.74)"/><path class="cls-20" d="M723.66,250.79s14.48-3.81,18.28.85S723.66,250.79,723.66,250.79Z" transform="translate(-60.21 -40.74)"/><path class="cls-20" d="M720.29,257.19c4.92,3.44,20.1,3.58,20.1,3.58Z" transform="translate(-60.21 -40.74)"/><path class="cls-20" d="M727.74,274.41c.42.14,10.43,10.83,14.64,7.6S727.74,274.41,727.74,274.41Z" transform="translate(-60.21 -40.74)"/><path class="cls-20" d="M592.87,184.71s2.94,20.25,1.49,28.5,3.84,18.46,3.84,18.46Z" transform="translate(-60.21 -40.74)"/><path class="cls-25" d="M566.89,369Z" transform="translate(-60.21 -40.74)"/></svg>