<svg id="Layer_1" data-name="Layer 1" xmlns="http://www.w3.org/2000/svg" viewBox="0 0 32.4 79.9"><defs><style>.cls-1{fill:#1078ad;}</style></defs><title>thermometre</title><path class="cls-1" d="M76.2,49.4h1.9a4.4,4.4,0,0,1-.7,1.9,3.9,3.9,0,0,1-1.7,1.4,4.3,4.3,0,0,1-2.2.6,5.1,5.1,0,0,1-3.8-1.6,6.2,6.2,0,0,1-1.4-4.3V47a6.6,6.6,0,0,1,.7-3,4.5,4.5,0,0,1,4.5-2.7,4.2,4.2,0,0,1,3.2,1.1,4.1,4.1,0,0,1,1.4,3.1H76.3a2.8,2.8,0,0,0-.9-1.8,2.7,2.7,0,0,0-1.9-.8A2.8,2.8,0,0,0,71.2,44a5.3,5.3,0,0,0-.8,3.2v.4a5.3,5.3,0,0,0,.7,3,3.2,3.2,0,0,0,2.4,1.1,2.8,2.8,0,0,0,1.9-.7,2.2,2.2,0,0,0,.9-1.6ZM66.3,34.8a1.6,1.6,0,0,1,1.4,1,1.6,1.6,0,0,1-2,2,1.6,1.6,0,0,1-1-1.5,1.6,1.6,0,0,1,.5-1.1,2.1,2.1,0,0,1,1.1-.4Zm0,4.2a2.8,2.8,0,0,0,2.4-1.6,2.7,2.7,0,0,0-3.5-3.5,2.8,2.8,0,0,0-1.6,2.5,2.5,2.5,0,0,0,.8,1.8,2.7,2.7,0,0,0,1.9.8Zm0,61.6a7.2,7.2,0,0,1-6.4,7.2,7.3,7.3,0,0,1-7.9-5.4,7.2,7.2,0,0,1,4.4-8.5l.7-.2V59.6h3.4V93.5l1.2.4a7.1,7.1,0,0,1,4.6,6.7Zm-7.6,10.8a10.8,10.8,0,0,1-3.6-21h.2V55.3a3.8,3.8,0,1,1,7.5,0V90.6a10.9,10.9,0,0,1,6.5,12.1,10.7,10.7,0,0,1-10.6,8.7Zm6.6-22V82.3h5.2a1.2,1.2,0,0,0,1.2-1.2,1.2,1.2,0,0,0-1.2-1.2H65.3V77.4h3.1a1.3,1.3,0,0,0,1.2-1.2A1.2,1.2,0,0,0,68.4,75H65.3V72.4h5.2a1.2,1.2,0,0,0,0-2.4H65.3V67.4h3.1a1.2,1.2,0,0,0,1.2-1.2A1.3,1.3,0,0,0,68.4,65H65.3V62.4h5.2a1.2,1.2,0,0,0,1.2-1.2A1.2,1.2,0,0,0,70.5,60H65.3V54.3a6.3,6.3,0,1,0-12.5,0V89a13.1,13.1,0,1,0,12.5.4Z" transform="translate(-45.7 -33.7)"/></svg>